<svg width="24" height="30" viewBox="0 0 24 30" fill="none" xmlns="http://www.w3.org/2000/svg">
<path d="M5.13357 29.826C3.71855 29.826 2.655 29.47 1.94293 28.7579C1.23998 28.0458 0.888507 26.9732 0.888507 25.5399V4.76646C0.888507 3.34231 1.23998 2.26963 1.94293 1.54843C2.655 0.827224 3.71855 0.466622 5.13357 0.466622H11.6381C12.1493 0.466622 12.5967 0.503139 12.9801 0.576172C13.3726 0.640077 13.7332 0.767885 14.0619 0.959597C14.3905 1.14218 14.7283 1.41149 15.0752 1.76753L22.6205 9.44972C22.9856 9.82402 23.2595 10.1801 23.4421 10.5178C23.6338 10.8465 23.7616 11.2116 23.8255 11.6133C23.8894 12.015 23.9214 12.5126 23.9214 13.106V25.5399C23.9214 26.964 23.5654 28.0321 22.8533 28.7442C22.1503 29.4654 21.0913 29.826 19.6763 29.826H5.13357ZM5.22942 27.6213H19.5668C20.2789 27.6213 20.8129 27.4387 21.1689 27.0736C21.5341 26.7084 21.7167 26.1835 21.7167 25.4988V13.2018H13.9113C13.0531 13.2018 12.4095 12.9873 11.9804 12.5582C11.5514 12.1291 11.3368 11.4855 11.3368 10.6274V2.67132H5.24312C4.53104 2.67132 3.99242 2.85846 3.62726 3.23276C3.27122 3.60705 3.0932 4.13198 3.0932 4.80754V25.4988C3.0932 26.1835 3.27122 26.7084 3.62726 27.0736C3.99242 27.4387 4.52648 27.6213 5.22942 27.6213ZM14.1577 11.1341H21.2922L13.4046 3.09582V10.3672C13.4046 10.6411 13.4594 10.8374 13.5689 10.956C13.6876 11.0747 13.8839 11.1341 14.1577 11.1341Z" fill="#007AFF"/>
</svg>
