<svg width="30" height="29" viewBox="0 0 30 29" fill="none" xmlns="http://www.w3.org/2000/svg">
<path d="M14.0293 7.92188C14.1387 7.61198 14.3255 7.4069 14.5898 7.30664C14.8633 7.19727 15.1322 7.19727 15.3965 7.30664C15.6699 7.4069 15.8613 7.61198 15.9707 7.92188L18.6641 15.7285H11.3496L14.0293 7.92188ZM20.7285 25.668C20.5645 25.6953 20.4049 25.6725 20.25 25.5996C20.1042 25.5267 19.972 25.4264 19.8535 25.2988C19.7441 25.1803 19.6712 25.0391 19.6348 24.875L17.6934 16.2754L18.2676 16.6035H11.7324L12.3066 16.2754L10.3652 24.875C10.3014 25.1484 10.151 25.3581 9.91406 25.5039C9.67708 25.6589 9.42188 25.7135 9.14844 25.668C8.86589 25.6224 8.64258 25.4766 8.47852 25.2305C8.31445 24.9935 8.26432 24.7383 8.32812 24.4648L10.2695 15.9062C10.3607 15.5417 10.543 15.2363 10.8164 14.9902C11.0898 14.735 11.4089 14.6074 11.7734 14.6074H18.2129C18.5866 14.6074 18.9102 14.735 19.1836 14.9902C19.457 15.2363 19.6393 15.5462 19.7305 15.9199L21.6582 24.4648C21.7311 24.7747 21.6536 25.0482 21.4258 25.2852C21.1979 25.5221 20.9655 25.6497 20.7285 25.668ZM14.9863 28.252C13.0358 28.252 11.2083 27.8828 9.50391 27.1445C7.79948 26.4154 6.30013 25.4036 5.00586 24.1094C3.71159 22.8242 2.69531 21.3294 1.95703 19.625C1.22786 17.9115 0.863281 16.0794 0.863281 14.1289C0.863281 12.1784 1.22786 10.3509 1.95703 8.64648C2.69531 6.93294 3.71159 5.42904 5.00586 4.13477C6.30013 2.84049 7.79948 1.82878 9.50391 1.09961C11.2083 0.370443 13.0358 0.00585938 14.9863 0.00585938C16.9368 0.00585938 18.7643 0.370443 20.4688 1.09961C22.1823 1.82878 23.6862 2.84049 24.9805 4.13477C26.2747 5.42904 27.2865 6.93294 28.0156 8.64648C28.7539 10.3509 29.123 12.1784 29.123 14.1289C29.123 16.0794 28.7539 17.9115 28.0156 19.625C27.2865 21.3294 26.2747 22.8242 24.9805 24.1094C23.6862 25.4036 22.1823 26.4154 20.4688 27.1445C18.7643 27.8828 16.9368 28.252 14.9863 28.252ZM14.9863 25.4629C16.554 25.4629 18.0215 25.1667 19.3887 24.5742C20.7559 23.9909 21.959 23.1797 22.998 22.1406C24.0462 21.1016 24.862 19.8984 25.4453 18.5312C26.0286 17.1641 26.3203 15.6966 26.3203 14.1289C26.3203 12.5612 26.0286 11.0938 25.4453 9.72656C24.862 8.35026 24.0462 7.14714 22.998 6.11719C21.959 5.07812 20.7559 4.26693 19.3887 3.68359C18.0215 3.09115 16.554 2.79492 14.9863 2.79492C13.4277 2.79492 11.9603 3.09115 10.584 3.68359C9.2168 4.26693 8.01367 5.07812 6.97461 6.11719C5.93555 7.14714 5.11979 8.35026 4.52734 9.72656C3.94401 11.0938 3.65234 12.5612 3.65234 14.1289C3.65234 15.6966 3.94401 17.1641 4.52734 18.5312C5.11979 19.8984 5.93555 21.1016 6.97461 22.1406C8.01367 23.1797 9.2168 23.9909 10.584 24.5742C11.9603 25.1667 13.4277 25.4629 14.9863 25.4629Z" fill="#007AFF"/>
</svg>
