<svg width="34" height="26" viewBox="0 0 34 26" fill="none" xmlns="http://www.w3.org/2000/svg">
<path d="M2.13438 4.90332H31.8656V6.85859H2.13438V4.90332ZM5.00488 25.7596C3.55345 25.7596 2.46257 25.399 1.73223 24.6779C1.01113 23.9661 0.650587 22.8983 0.650587 21.4746V4.52891C0.650587 3.09596 1.01113 2.02357 1.73223 1.31172C2.46257 0.590625 3.55345 0.230078 5.00488 0.230078H28.9951C30.4558 0.230078 31.5467 0.590625 32.2678 1.31172C32.9889 2.03281 33.3494 3.10521 33.3494 4.52891V21.4746C33.3494 22.8983 32.9889 23.9661 32.2678 24.6779C31.5467 25.399 30.4558 25.7596 28.9951 25.7596H5.00488ZM5.03262 23.527H28.9674C29.6515 23.527 30.1785 23.3467 30.5482 22.9861C30.9273 22.6163 31.1168 22.0709 31.1168 21.3498V4.65371C31.1168 3.93262 30.9273 3.38717 30.5482 3.01738C30.1785 2.64759 29.6515 2.4627 28.9674 2.4627H5.03262C4.33926 2.4627 3.80768 2.64759 3.43789 3.01738C3.0681 3.38717 2.8832 3.93262 2.8832 4.65371V21.3498C2.8832 22.0709 3.0681 22.6163 3.43789 22.9861C3.80768 23.3467 4.33926 23.527 5.03262 23.527ZM6.61348 20.1295V18.0494C6.61348 17.6889 6.72442 17.3977 6.94629 17.1758C7.17741 16.9539 7.47787 16.843 7.84766 16.843H26.1939C26.5637 16.843 26.8596 16.9539 27.0814 17.1758C27.3126 17.3977 27.4281 17.6889 27.4281 18.0494V20.1295C27.4281 20.49 27.3126 20.7813 27.0814 21.0031C26.8596 21.225 26.5637 21.3359 26.1939 21.3359H7.84766C7.47787 21.3359 7.17741 21.225 6.94629 21.0031C6.72442 20.7813 6.61348 20.49 6.61348 20.1295Z" fill="#007AFF"/>
</svg>
