<svg width="32" height="24" viewBox="0 0 32 24" fill="none" xmlns="http://www.w3.org/2000/svg">
<path d="M0.243142 17.5474C0.243142 17.0455 0.305877 16.566 0.431345 16.109C0.556814 15.6519 0.704687 15.2128 0.874966 14.7915L5.41872 3.91611C5.86682 2.84067 6.53001 2.0296 7.40829 1.48292C8.29553 0.936235 9.33961 0.662893 10.5405 0.662893H21.6848C22.8857 0.662893 23.9253 0.936235 24.8036 1.48292C25.6909 2.0296 26.3585 2.84067 26.8066 3.91611L31.3369 14.7915C31.5072 15.2128 31.6551 15.6519 31.7806 16.109C31.915 16.566 31.9822 17.0455 31.9822 17.5474C31.9822 18.6856 31.7089 19.7162 31.1622 20.6393C30.6155 21.5534 29.8627 22.2748 28.9037 22.8036C27.9448 23.3413 26.8425 23.6102 25.5967 23.6102H6.62859C5.38287 23.6102 4.28054 23.3413 3.3216 22.8036C2.36266 22.2748 1.60985 21.5534 1.06317 20.6393C0.516484 19.7162 0.243142 18.6856 0.243142 17.5474ZM2.40747 17.5474C2.40747 18.2912 2.58223 18.9589 2.93175 19.5504C3.28127 20.1329 3.77419 20.5945 4.41049 20.935C5.04679 21.2756 5.78616 21.4459 6.62859 21.4459H25.5967C26.4481 21.4459 27.1875 21.2935 27.8149 20.9888C28.4512 20.6841 28.9441 20.2449 29.2936 19.6714C29.6431 19.0888 29.8179 18.3808 29.8179 17.5474C29.8179 16.8125 29.6431 16.1493 29.2936 15.5578C28.9441 14.9663 28.4512 14.5003 27.8149 14.1597C27.1875 13.8192 26.4481 13.6489 25.5967 13.6489H6.62859C5.78616 13.6489 5.04679 13.8192 4.41049 14.1597C3.77419 14.5003 3.28127 14.9663 2.93175 15.5578C2.58223 16.1493 2.40747 16.8125 2.40747 17.5474ZM4.58525 11.8341C4.89892 11.7176 5.22604 11.6324 5.56659 11.5787C5.90715 11.5159 6.26115 11.4846 6.62859 11.4846H25.5967C25.9642 11.4846 26.3182 11.5159 26.6588 11.5787C26.9993 11.6324 27.3264 11.7176 27.6401 11.8341L24.7095 4.46728C24.4586 3.83097 24.0642 3.3515 23.5265 3.02887C22.9888 2.70624 22.339 2.54492 21.5773 2.54492H10.6481C9.8863 2.54492 9.23655 2.70624 8.69883 3.02887C8.1611 3.3515 7.76677 3.83097 7.51584 4.46728L4.58525 11.8341ZM23.8895 17.5474C23.8895 17.0993 24.0553 16.7094 24.3869 16.3778C24.7274 16.0462 25.1262 15.8804 25.5833 15.8804C26.0314 15.8804 26.4213 16.0462 26.7529 16.3778C27.0844 16.7094 27.2502 17.0993 27.2502 17.5474C27.2502 18.0134 27.0844 18.4077 26.7529 18.7304C26.4213 19.053 26.0314 19.2143 25.5833 19.2143C25.1262 19.2143 24.7274 19.0575 24.3869 18.7438C24.0553 18.4212 23.8895 18.0224 23.8895 17.5474Z" fill="#007AFF"/>
</svg>
