<svg width="29" height="29" viewBox="0 0 29 29" fill="none" xmlns="http://www.w3.org/2000/svg">
<path d="M7.24312 15.8166C6.96924 15.8166 6.74101 15.7254 6.55843 15.5428C6.37585 15.3602 6.28456 15.132 6.28456 14.8581C6.28456 14.5933 6.37585 14.3697 6.55843 14.1871C6.74101 14.0045 6.96924 13.9132 7.24312 13.9132H13.4464V5.6285C13.4464 5.36376 13.5377 5.14009 13.7203 4.95751C13.9028 4.77493 14.1265 4.68363 14.3913 4.68363C14.6651 4.68363 14.8934 4.77493 15.0759 4.95751C15.2585 5.14009 15.3498 5.36376 15.3498 5.6285V14.8581C15.3498 15.132 15.2585 15.3602 15.0759 15.5428C14.8934 15.7254 14.6651 15.8166 14.3913 15.8166H7.24312ZM14.4049 28.3053C12.4787 28.3053 10.6711 27.9402 8.98222 27.2098C7.29333 26.4886 5.80984 25.489 4.53176 24.2109C3.25367 22.9328 2.24946 21.4493 1.51913 19.7604C0.797928 18.0716 0.437326 16.264 0.437326 14.3377C0.437326 12.4115 0.797928 10.6039 1.51913 8.915C2.24946 7.22611 3.25367 5.74262 4.53176 4.46453C5.80984 3.17732 7.29333 2.17311 8.98222 1.45191C10.6711 0.730706 12.4787 0.370104 14.4049 0.370104C16.3312 0.370104 18.1388 0.730706 19.8277 1.45191C21.5166 2.17311 23.0001 3.17732 24.2781 4.46453C25.5562 5.74262 26.5559 7.22611 27.2771 8.915C28.0074 10.6039 28.3726 12.4115 28.3726 14.3377C28.3726 16.264 28.0074 18.0716 27.2771 19.7604C26.5559 21.4493 25.5562 22.9328 24.2781 24.2109C23.0001 25.489 21.5166 26.4886 19.8277 27.2098C18.1388 27.9402 16.3312 28.3053 14.4049 28.3053ZM14.4049 25.9774C16.0117 25.9774 17.518 25.6761 18.9239 25.0736C20.3298 24.4711 21.5668 23.6358 22.6349 22.5677C23.703 21.4996 24.5383 20.2626 25.1408 18.8567C25.7434 17.4508 26.0446 15.9445 26.0446 14.3377C26.0446 12.731 25.7434 11.2247 25.1408 9.81879C24.5383 8.40377 23.703 7.16677 22.6349 6.10778C21.5668 5.03967 20.3298 4.20435 18.9239 3.60183C17.518 2.9993 16.0117 2.69804 14.4049 2.69804C12.7982 2.69804 11.2919 2.9993 9.88601 3.60183C8.48012 4.20435 7.24312 5.03967 6.17501 6.10778C5.10689 7.16677 4.27157 8.40377 3.66905 9.81879C3.06652 11.2247 2.76526 12.731 2.76526 14.3377C2.76526 15.9445 3.06652 17.4508 3.66905 18.8567C4.27157 20.2626 5.10689 21.4996 6.17501 22.5677C7.24312 23.6358 8.48012 24.4711 9.88601 25.0736C11.2919 25.6761 12.7982 25.9774 14.4049 25.9774Z" fill="#007AFF"/>
</svg>
