<svg width="28" height="28" viewBox="0 0 28 28" fill="none" xmlns="http://www.w3.org/2000/svg">
<path d="M2.57181 8.41652L3.32462 6.74958C4.83024 8.52407 6.64505 9.90422 8.76906 10.89C10.902 11.8759 13.1605 12.3643 15.5444 12.3553C17.3816 12.3464 19.1471 12.0372 20.8409 11.4278C22.5347 10.8094 24.0762 9.92214 25.4653 8.76604L26.2316 10.2717C24.717 11.4636 23.0456 12.3777 21.2173 13.014C19.398 13.6504 17.507 13.973 15.5444 13.9819C13.8864 13.9819 12.2732 13.7669 10.7049 13.3367C9.14546 12.8975 7.67569 12.2612 6.29553 11.4278C4.92434 10.5943 3.6831 9.59055 2.57181 8.41652ZM1.1334 16.0925L1.53669 14.2643C3.22155 15.8236 5.08118 17.0649 7.11556 17.988C9.14994 18.9021 11.256 19.4846 13.4338 19.7356C15.6205 19.9865 17.7983 19.8969 19.9671 19.4667C22.1359 19.0276 24.1972 18.2434 26.1509 17.1142L26.1913 18.9559C24.1748 20.0134 22.0687 20.7393 19.873 21.1337C17.6773 21.528 15.4727 21.5997 13.259 21.3487C11.0544 21.0978 8.91693 20.5332 6.8467 19.6549C4.78543 18.7677 2.881 17.5802 1.1334 16.0925ZM7.80116 25.3279C7.44267 24.2973 7.16933 23.2532 6.98113 22.1957C6.79293 21.1381 6.68986 20.0717 6.67194 18.9962C6.55543 16.7019 6.775 14.4704 7.33065 12.3016C7.89526 10.1238 8.76009 8.08045 9.92516 6.17153C11.0902 4.25366 12.5197 2.54191 14.2135 1.03628L15.9342 1.70844C14.2225 3.10651 12.7751 4.72416 11.5921 6.56138C10.4091 8.38964 9.53083 10.3568 8.95726 12.4629C8.39265 14.569 8.17308 16.7378 8.29855 18.9693C8.31647 20.1433 8.44642 21.2995 8.6884 22.4376C8.93037 23.5758 9.27541 24.6871 9.72351 25.7715L7.80116 25.3279ZM16.6601 26.6588C15.3606 24.7767 14.3703 22.7513 13.6892 20.5825C13.0081 18.4047 12.6675 16.1552 12.6675 13.8341C12.6675 11.6742 12.9678 9.56814 13.5682 7.51584C14.1687 5.46353 15.0425 3.53669 16.1896 1.73532L17.7759 2.29993C16.6377 3.99376 15.7729 5.81753 15.1814 7.77126C14.5899 9.72498 14.2942 11.7459 14.2942 13.8341C14.2942 16.0298 14.6257 18.1627 15.2889 20.233C15.9611 22.2942 16.9245 24.2121 18.1792 25.9866L16.6601 26.6588ZM24.5781 21.6579C22.9649 20.69 21.5668 19.4936 20.3839 18.0686C19.2009 16.6347 18.2867 15.0484 17.6415 13.3098C16.9962 11.5622 16.6601 9.73394 16.6332 7.82503C16.6243 6.79439 16.7049 5.78616 16.8752 4.80034C17.0455 3.80555 17.3099 2.83765 17.6684 1.89664L19.2412 2.34026C18.9006 3.20062 18.6497 4.09234 18.4884 5.01543C18.3271 5.93852 18.2509 6.87057 18.2599 7.81158C18.2867 9.56814 18.6004 11.244 19.2009 12.8393C19.8103 14.4345 20.6617 15.8819 21.755 17.1814C22.8574 18.4809 24.1614 19.5608 25.667 20.4212L24.5781 21.6579ZM8.28511 13.8206C7.69361 13.8206 7.19174 13.6145 6.77948 13.2023C6.37619 12.79 6.17455 12.2926 6.17455 11.7101C6.17455 11.1275 6.37619 10.6346 6.77948 10.2313C7.19174 9.81908 7.69361 9.61295 8.28511 9.61295C8.85868 9.61295 9.34711 9.81908 9.7504 10.2313C10.1627 10.6346 10.3688 11.1275 10.3688 11.7101C10.3688 12.2926 10.1627 12.79 9.7504 13.2023C9.34711 13.6145 8.85868 13.8206 8.28511 13.8206ZM18.5825 14.9364C18 14.9364 17.507 14.7348 17.1038 14.3315C16.7005 13.9192 16.4988 13.4263 16.4988 12.8527C16.4988 12.2881 16.7005 11.8042 17.1038 11.4009C17.507 10.9976 18 10.7959 18.5825 10.7959C19.1471 10.7959 19.631 10.9976 20.0343 11.4009C20.4376 11.8042 20.6393 12.2881 20.6393 12.8527C20.6393 13.4263 20.4376 13.9192 20.0343 14.3315C19.631 14.7348 19.1471 14.9364 18.5825 14.9364ZM14.5765 22.7065C13.985 22.7065 13.4831 22.5048 13.0708 22.1016C12.6675 21.6893 12.4659 21.1919 12.4659 20.6094C12.4659 20.0268 12.6675 19.5339 13.0708 19.1306C13.4831 18.7184 13.985 18.5123 14.5765 18.5123C15.15 18.5123 15.6385 18.7184 16.0418 19.1306C16.454 19.5339 16.6601 20.0268 16.6601 20.6094C16.6601 21.1919 16.454 21.6893 16.0418 22.1016C15.6385 22.5048 15.15 22.7065 14.5765 22.7065ZM14.1194 27.8283C12.2284 27.8283 10.4539 27.4698 8.79594 26.7529C7.13797 26.0449 5.68163 25.0635 4.42695 23.8088C3.17226 22.5541 2.18644 21.0978 1.46948 19.4398C0.761475 17.7819 0.407475 16.0074 0.407475 14.1164C0.407475 12.2254 0.761475 10.4509 1.46948 8.79293C2.18644 7.13495 3.17226 5.67862 4.42695 4.42393C5.68163 3.16029 7.13797 2.17446 8.79594 1.46646C10.4539 0.75846 12.2284 0.40446 14.1194 0.40446C16.0104 0.40446 17.7849 0.75846 19.4428 1.46646C21.1008 2.17446 22.5572 3.16029 23.8118 4.42393C25.0665 5.67862 26.0479 7.13495 26.7559 8.79293C27.4728 10.4509 27.8313 12.2254 27.8313 14.1164C27.8313 16.0074 27.4728 17.7819 26.7559 19.4398C26.0479 21.0978 25.0665 22.5541 23.8118 23.8088C22.5572 25.0635 21.1008 26.0449 19.4428 26.7529C17.7849 27.4698 16.0104 27.8283 14.1194 27.8283ZM14.1194 26C15.7594 26 17.2964 25.6909 18.7304 25.0725C20.1643 24.4541 21.4279 23.6027 22.5213 22.5183C23.6147 21.4249 24.4661 20.1613 25.0755 18.7273C25.6939 17.2934 26.0031 15.7564 26.0031 14.1164C26.0031 12.4763 25.6939 10.9393 25.0755 9.50541C24.4661 8.06252 23.6147 6.79887 22.5213 5.71447C21.4279 4.6211 20.1643 3.7697 18.7304 3.16029C17.2964 2.54191 15.7594 2.23272 14.1194 2.23272C12.4793 2.23272 10.9424 2.54191 9.50842 3.16029C8.0745 3.7697 6.81085 4.6211 5.71748 5.71447C4.62411 6.79887 3.76824 8.06252 3.14986 9.50541C2.54044 10.9393 2.23573 12.4763 2.23573 14.1164C2.23573 15.7564 2.54044 17.2934 3.14986 18.7273C3.76824 20.1613 4.62411 21.4249 5.71748 22.5183C6.81085 23.6027 8.0745 24.4541 9.50842 25.0725C10.9424 25.6909 12.4793 26 14.1194 26Z" fill="#007AFF"/>
</svg>
