<svg width="29" height="29" viewBox="0 0 29 29" fill="none" xmlns="http://www.w3.org/2000/svg">
<path d="M14.2704 28.4746C12.3509 28.4746 10.5497 28.1107 8.86675 27.3829C7.1838 26.6643 5.70554 25.6681 4.43195 24.3946C3.15837 23.121 2.1577 21.6427 1.42994 19.9598C0.711278 18.2768 0.351946 16.4756 0.351946 14.5561C0.351946 12.6367 0.711278 10.8355 1.42994 9.15252C2.1577 7.46957 3.15837 5.99131 4.43195 4.71773C5.70554 3.43505 7.1838 2.43438 8.86675 1.71571C10.5497 0.99705 12.3509 0.637718 14.2704 0.637718C16.1898 0.637718 17.991 0.99705 19.674 1.71571C21.3569 2.43438 22.8352 3.43505 24.1088 4.71773C25.3824 5.99131 26.3785 7.46957 27.0972 9.15252C27.8249 10.8355 28.1888 12.6367 28.1888 14.5561C28.1888 16.4756 27.8249 18.2768 27.0972 19.9598C26.3785 21.6427 25.3824 23.121 24.1088 24.3946C22.8352 25.6681 21.3569 26.6643 19.674 27.3829C17.991 28.1107 16.1898 28.4746 14.2704 28.4746ZM14.2704 26.1548C15.8714 26.1548 17.3725 25.8546 18.7734 25.2542C20.1743 24.6538 21.407 23.8214 22.4713 22.7571C23.5357 21.6927 24.3681 20.4601 24.9685 19.0592C25.5689 17.6582 25.8691 16.1572 25.8691 14.5561C25.8691 12.9551 25.5689 11.4541 24.9685 10.0531C24.3681 8.64309 23.5357 7.41044 22.4713 6.35519C21.407 5.29084 20.1743 4.45846 18.7734 3.85806C17.3725 3.25766 15.8714 2.95746 14.2704 2.95746C12.6693 2.95746 11.1683 3.25766 9.76735 3.85806C8.36641 4.45846 7.13377 5.29084 6.06942 6.35519C5.00507 7.41044 4.17269 8.64309 3.57229 10.0531C2.97188 11.4541 2.67168 12.9551 2.67168 14.5561C2.67168 16.1572 2.97188 17.6582 3.57229 19.0592C4.17269 20.4601 5.00507 21.6927 6.06942 22.7571C7.13377 23.8214 8.36641 24.6538 9.76735 25.2542C11.1683 25.8546 12.6693 26.1548 14.2704 26.1548ZM14.2704 21.4335C14.1339 21.4335 14.002 21.4107 13.8747 21.3653C13.7564 21.3107 13.6245 21.2152 13.4789 21.0787L8.98956 16.7394C8.88039 16.6303 8.79852 16.5211 8.74394 16.4119C8.68936 16.2937 8.66206 16.1618 8.66206 16.0162C8.66206 15.7433 8.75303 15.5159 8.93497 15.3339C9.12601 15.152 9.36253 15.061 9.64454 15.061C9.95384 15.061 10.204 15.1702 10.395 15.3885L12.4692 17.5991L13.2742 18.4451L13.1924 16.3983V8.72951C13.1924 8.4475 13.297 8.20188 13.5062 7.99265C13.7245 7.78342 13.9793 7.6788 14.2704 7.6788C14.5706 7.6788 14.8253 7.78342 15.0345 7.99265C15.2528 8.20188 15.362 8.4475 15.362 8.72951V16.3983L15.2801 18.4451L16.0716 17.5991L18.1457 15.3885C18.3367 15.1702 18.5824 15.061 18.8826 15.061C19.1646 15.061 19.4011 15.152 19.5921 15.3339C19.7832 15.5159 19.8787 15.7433 19.8787 16.0162C19.8787 16.1618 19.8514 16.2937 19.7968 16.4119C19.7422 16.5211 19.6649 16.6303 19.5648 16.7394L15.0618 21.0787C14.9254 21.2152 14.7934 21.3107 14.6661 21.3653C14.5478 21.4107 14.4159 21.4335 14.2704 21.4335Z" fill="#007AFF"/>
</svg>
