<svg width="35" height="25" viewBox="0 0 35 25" fill="none" xmlns="http://www.w3.org/2000/svg">
<path d="M27.2508 24.5327H8.39446C7.22593 24.5327 6.14412 24.3364 5.14905 23.9439C4.15397 23.5513 3.28213 23.0173 2.53354 22.3417C1.79408 21.657 1.21894 20.8673 0.808128 19.9727C0.397315 19.078 0.191909 18.1286 0.191909 17.1244C0.191909 16.0106 0.392751 14.9836 0.794434 14.0433C1.20525 13.103 1.78495 12.3224 2.53354 11.7017C3.29126 11.0809 4.18592 10.6883 5.21751 10.524C5.23577 9.56543 5.45487 8.70272 5.87481 7.93587C6.29476 7.15989 6.84707 6.52085 7.53176 6.01875C8.21644 5.50752 8.97416 5.16974 9.80492 5.00541C10.6448 4.83196 11.4847 4.86847 12.3246 5.11496C12.8723 4.31159 13.5296 3.58126 14.2965 2.92396C15.0724 2.25753 15.958 1.72804 16.9531 1.33549C17.9573 0.933804 19.0801 0.732963 20.3217 0.732963C21.7276 0.732963 23.0331 0.993144 24.2381 1.51351C25.4523 2.02474 26.5113 2.75507 27.4151 3.70451C28.328 4.64481 29.0355 5.75857 29.5376 7.04578C30.0397 8.32386 30.2908 9.72519 30.2908 11.2498C31.1854 11.6241 31.9568 12.1399 32.605 12.7972C33.2532 13.4453 33.7507 14.1939 34.0976 15.0429C34.4445 15.8828 34.618 16.782 34.618 17.7406C34.618 18.6809 34.4308 19.5619 34.0565 20.3835C33.6822 21.2051 33.1573 21.9263 32.4818 22.5471C31.8153 23.1679 31.0348 23.6517 30.1401 23.9986C29.2455 24.3547 28.2823 24.5327 27.2508 24.5327ZM27.2508 22.328C28.2184 22.328 29.0903 22.1226 29.8663 21.7118C30.6514 21.301 31.2721 20.7487 31.7286 20.0548C32.1851 19.361 32.4133 18.5896 32.4133 17.7406C32.4133 16.499 32.039 15.4492 31.2904 14.591C30.5509 13.7329 29.5604 13.1669 28.3189 12.893C28.1545 12.8565 28.0815 12.7515 28.0998 12.5781C28.1272 12.2585 28.1454 11.9253 28.1545 11.5784C28.1728 11.2224 28.1728 10.8846 28.1545 10.5651C28.0815 9.21396 27.7072 7.9587 27.0317 6.79929C26.3561 5.63989 25.4432 4.70871 24.2929 4.00577C23.1426 3.29369 21.8189 2.93766 20.3217 2.93766C19.1441 2.93766 18.117 3.13393 17.2406 3.52649C16.3734 3.90991 15.6293 4.43027 15.0085 5.08757C14.3878 5.74487 13.8537 6.46608 13.4064 7.25119C13.3333 7.38812 13.2192 7.43377 13.064 7.38812C12.3611 7.15989 11.6627 7.07317 10.9689 7.12794C10.2842 7.17359 9.65885 7.37899 9.09284 7.74416C8.52684 8.1002 8.07038 8.62513 7.72347 9.31894C7.38569 10.0036 7.2168 10.8755 7.2168 11.9344C7.2168 12.117 7.13007 12.2083 6.95662 12.2083C5.98893 12.2083 5.16274 12.4274 4.47805 12.8656C3.80249 13.3038 3.2867 13.8972 2.93066 14.6458C2.57462 15.3853 2.3966 16.2115 2.3966 17.1244C2.3966 18.0556 2.65678 18.9183 3.17715 19.7125C3.69751 20.4976 4.40958 21.1321 5.31337 21.6159C6.21716 22.0906 7.24419 22.328 8.39446 22.328H27.2508Z" fill="#007AFF"/>
</svg>
